grf
version=1
nRows=19
nColumns=37
inDegrees=no
endheader
time	ground_force_1_vx	ground_force_1_vy	ground_force_1_vz	ground_force_1_px	ground_force_1_py	ground_force_1_pz	ground_moment_1_mx	ground_moment_1_my	ground_moment_1_mz	ground_force_2_vx	ground_force_2_vy	ground_force_2_vz	ground_force_2_px	ground_force_2_py	ground_force_2_pz	ground_moment_2_mx	ground_moment_2_my	ground_moment_2_mz	ground_force_3_vx	ground_force_3_vy	ground_force_3_vz	ground_force_3_px	ground_force_3_py	ground_force_3_pz	ground_moment_3_mx	ground_moment_3_my	ground_moment_3_mz	ground_force_4_vx	ground_force_4_vy	ground_force_4_vz	ground_force_4_px	ground_force_4_py	ground_force_4_pz	ground_moment_4_mx	ground_moment_4_my	ground_moment_4_mz
      0.00000000	      0.00000000	     -0.00000000	      0.00000000	      0.00000000	      0.00000000	      0.00000000	      0.00000000	      0.00000000	      0.00000000	      5.60771656	     15.20230484	   -323.20932007	   -323.88035717	  -1015.40048634	      0.00000000	      0.00000000	      0.00000000	   2072.24182738	     -5.85491325	    -16.52712389	   -301.01965332	   -265.04619105	   -811.66396664	      0.00000000	     -0.00000000	     -0.00000000	  -2364.71112214	      0.00000000	     -0.00000000	      0.00000000	      0.00000000	      0.00000000	      0.00000000	      0.00000000	      0.00000000	      0.00000000
      0.01000000	      0.00000000	     -0.00000000	      0.00000000	      0.00000000	      0.00000000	      0.00000000	      0.00000000	      0.00000000	      0.00000000	      5.28828716	     15.20185852	   -322.60955811	   -324.50313425	  -1015.67174067	      0.00000000	      0.00000000	      0.00000000	   1784.82886887	     -5.48723217	    -15.88512182	   -301.41891479	   -265.21373395	   -809.87788288	      0.00000000	      0.00000000	     -0.00000000	  -2574.24932568	      0.00000000	     -0.00000000	      0.00000000	      0.00000000	      0.00000000	      0.00000000	      0.00000000	      0.00000000	      0.00000000
      0.02000000	      0.00000000	     -0.00000000	      0.00000000	      0.00000000	      0.00000000	      0.00000000	      0.00000000	      0.00000000	      0.00000000	      5.30038643	     15.01084042	   -322.05133057	   -324.75285062	  -1013.68869470	      0.00000000	      0.00000000	      0.00000000	   1768.99192299	     -6.15884870	    -15.68362182	   -298.82519531	   -265.31615575	   -812.95888171	      0.00000000	     -0.00000000	     -0.00000000	  -2263.36163499	      0.00000000	     -0.00000000	      0.00000000	      0.00000000	      0.00000000	      0.00000000	      0.00000000	      0.00000000	      0.00000000
      0.03000000	      0.00000000	     -0.00000000	      0.00000000	      0.00000000	      0.00000000	      0.00000000	      0.00000000	      0.00000000	      0.00000000	      5.35263062	     15.20089722	   -322.11538696	   -324.92075577	  -1014.95701178	      0.00000000	     -0.00000000	     -0.00000000	   1916.09558497	     -5.57618184	    -15.83466863	   -300.11959839	   -265.46993995	   -811.04656252	      0.00000000	      0.00000000	     -0.00000000	  -2634.94810066	      0.00000000	     -0.00000000	      0.00000000	      0.00000000	      0.00000000	      0.00000000	      0.00000000	      0.00000000	      0.00000000
      0.04000000	      0.00000000	     -0.00000000	      0.00000000	      0.00000000	      0.00000000	      0.00000000	      0.00000000	      0.00000000	      0.00000000	      5.46603680	     15.21260357	   -323.51281738	   -324.05180859	  -1013.91257810	      0.00000000	      0.00000000	      0.00000000	   1965.63957098	     -5.89360854	    -15.99867388	   -300.82104492	   -265.44116552	   -810.51931743	      0.00000000	      0.00000000	     -0.00000000	  -2543.10842209	      0.00000000	     -0.00000000	      0.00000000	      0.00000000	      0.00000000	      0.00000000	      0.00000000	      0.00000000	      0.00000000
      0.05000000	      0.00000000	     -0.00000000	      0.00000000	      0.00000000	      0.00000000	      0.00000000	      0.00000000	      0.00000000	      0.00000000	      5.77471113	     15.33042908	   -322.66409302	   -324.48413245	  -1015.10516240	      0.00000000	      0.00000000	     -0.00000000	   1858.17669815	     -6.12104560	    -16.50576919	   -299.72616577	   -265.66035041	   -811.39412139	      0.00000000	      0.00000000	     -0.00000000	  -2433.92810429	      0.00000000	     -0.00000000	      0.00000000	      0.00000000	      0.00000000	      0.00000000	      0.00000000	      0.00000000	      0.00000000
      0.06000000	      0.00000000	     -0.00000000	      0.00000000	      0.00000000	      0.00000000	      0.00000000	      0.00000000	      0.00000000	      0.00000000	      5.70947266	     15.48496246	   -322.90048218	   -324.95087755	  -1014.89107367	      0.00000000	      0.00000000	      0.00000000	   1856.42357706	     -5.95874309	    -16.26340051	   -301.37734985	   -264.83062442	   -810.03836131	      0.00000000	      0.00000000	     -0.00000000	  -2487.28161046	      0.00000000	     -0.00000000	      0.00000000	      0.00000000	      0.00000000	      0.00000000	      0.00000000	      0.00000000	      0.00000000
      0.07000000	      0.00000000	     -0.00000000	      0.00000000	      0.00000000	      0.00000000	      0.00000000	      0.00000000	      0.00000000	      0.00000000	      5.20944786	     15.53216076	   -323.41979980	   -325.11014076	  -1014.77073021	      0.00000000	      0.00000000	      0.00000000	   1692.72025099	     -5.67749165	    -16.18707035	   -300.87301636	   -265.54773747	   -810.31054220	      0.00000000	     -0.00000000	     -0.00000000	  -2605.35792691	      0.00000000	     -0.00000000	      0.00000000	      0.00000000	      0.00000000	      0.00000000	      0.00000000	      0.00000000	      0.00000000
      0.08000000	      0.00000000	     -0.00000000	      0.00000000	      0.00000000	      0.00000000	      0.00000000	      0.00000000	      0.00000000	      0.00000000	      5.88389349	     15.25293922	   -324.03466797	   -324.67124256	  -1014.42902521	      0.00000000	      0.00000000	      0.00000000	   1977.27346047	     -5.81873320	    -16.22717616	   -299.22296143	   -265.29697232	   -810.65706787	      0.00000000	      0.00000000	     -0.00000000	  -2555.33282725	      0.00000000	     -0.00000000	      0.00000000	      0.00000000	      0.00000000	      0.00000000	      0.00000000	      0.00000000	      0.00000000
      0.09000000	      0.00000000	     -0.00000000	      0.00000000	      0.00000000	      0.00000000	      0.00000000	      0.00000000	      0.00000000	      0.00000000	      5.54259109	     15.40803051	   -322.80645752	   -324.41798187	  -1013.38395148	      0.00000000	      0.00000000	      0.00000000	   1903.93531450	     -5.56488319	    -15.90979909	   -300.43145752	   -264.61382399	   -809.67932984	      0.00000000	      0.00000000	      0.00000000	  -2425.30189643	      0.00000000	     -0.00000000	      0.00000000	      0.00000000	      0.00000000	      0.00000000	      0.00000000	      0.00000000	      0.00000000
      0.10000000	      0.00000000	     -0.00000000	      0.00000000	      0.00000000	      0.00000000	      0.00000000	      0.00000000	      0.00000000	      0.00000000	      5.67518902	     15.77387047	   -323.77554321	   -324.02496108	  -1015.07466984	      0.00000000	      0.00000000	      0.00000000	   2077.83678864	     -5.73068901	    -15.88611743	   -298.87377930	   -265.87532018	   -810.49980244	      0.00000000	      0.00000000	     -0.00000000	  -2553.71589043	      0.00000000	     -0.00000000	      0.00000000	      0.00000000	      0.00000000	      0.00000000	      0.00000000	      0.00000000	      0.00000000
      0.11000000	      0.00000000	     -0.00000000	      0.00000000	      0.00000000	      0.00000000	      0.00000000	      0.00000000	      0.00000000	      0.00000000	      5.01838684	     15.74339581	   -324.34872437	   -323.55221942	  -1015.41797551	      0.00000000	      0.00000000	      0.00000000	   1777.68192893	     -5.68920129	    -15.64459656	   -299.05813599	   -266.09671220	   -810.42365318	      0.00000000	      0.00000000	     -0.00000000	  -2440.31670280	      0.00000000	     -0.00000000	      0.00000000	      0.00000000	      0.00000000	      0.00000000	      0.00000000	      0.00000000	      0.00000000
      0.12000000	      0.00000000	     -0.00000000	      0.00000000	      0.00000000	      0.00000000	      0.00000000	      0.00000000	      0.00000000	      0.00000000	      5.05181360	     15.88760090	   -324.79244995	   -323.67340697	  -1016.34298957	      0.00000000	     -0.00000000	      0.00000000	   1745.83396878	     -5.52330204	    -15.93259858	   -298.52465820	   -265.52393213	   -811.82995942	      0.00000000	      0.00000000	     -0.00000000	  -2613.96000836	      0.00000000	     -0.00000000	      0.00000000	      0.00000000	      0.00000000	      0.00000000	      0.00000000	      0.00000000	      0.00000000
      0.13000000	      0.00000000	     -0.00000000	      0.00000000	      0.00000000	      0.00000000	      0.00000000	      0.00000000	      0.00000000	      0.00000000	      5.44230461	     15.65370083	   -323.15966797	   -324.59069914	  -1013.78402795	      0.00000000	      0.00000000	      0.00000000	   1960.91007135	     -5.71200697	    -15.54461620	   -298.26605225	   -265.60488605	   -812.12940203	      0.00000000	      0.00000000	     -0.00000000	  -2443.90528922	      0.00000000	     -0.00000000	      0.00000000	      0.00000000	      0.00000000	      0.00000000	      0.00000000	      0.00000000	      0.00000000
      0.14000000	      0.00000000	     -0.00000000	      0.00000000	      0.00000000	      0.00000000	      0.00000000	      0.00000000	      0.00000000	      0.00000000	      5.28535032	     15.51964474	   -324.08895874	   -324.09180708	  -1014.93194715	      0.00000000	      0.00000000	      0.00000000	   1986.44439330	     -6.09829038	    -15.65559334	   -298.64987183	   -265.44943488	   -810.25181091	      0.00000000	      0.00000000	     -0.00000000	  -2305.76155808	      0.00000000	     -0.00000000	      0.00000000	      0.00000000	      0.00000000	      0.00000000	      0.00000000	      0.00000000	      0.00000000
      0.15000000	      0.00000000	     -0.00000000	      0.00000000	      0.00000000	      0.00000000	      0.00000000	      0.00000000	      0.00000000	      0.00000000	      5.48525524	     15.44124699	   -324.40051270	   -324.12428273	  -1015.08150250	      0.00000000	      0.00000000	      0.00000000	   2057.93087305	     -5.56766933	    -15.66658925	   -297.26107788	   -265.80218934	   -813.34632307	      0.00000000	      0.00000000	     -0.00000000	  -2632.85609591	      0.00000000	     -0.00000000	      0.00000000	      0.00000000	      0.00000000	      0.00000000	      0.00000000	      0.00000000	      0.00000000
      0.16000000	      0.00000000	     -0.00000000	      0.00000000	      0.00000000	      0.00000000	      0.00000000	      0.00000000	      0.00000000	      0.00000000	      5.90179062	     15.17366695	   -323.51281738	   -324.32142575	  -1014.89070782	      0.00000000	     -0.00000000	      0.00000000	   2004.54542792	     -5.84374044	    -16.05229899	   -298.08752441	   -266.06851257	   -811.22360738	      0.00000000	      0.00000000	     -0.00000000	  -2492.00909044	      0.00000000	     -0.00000000	      0.00000000	      0.00000000	      0.00000000	      0.00000000	      0.00000000	      0.00000000	      0.00000000
      0.17000000	      0.00000000	     -0.00000000	      0.00000000	      0.00000000	      0.00000000	      0.00000000	      0.00000000	      0.00000000	      0.00000000	      5.10629272	     15.35170364	   -323.59710693	   -324.45880439	  -1015.65543441	      0.00000000	      0.00000000	      0.00000000	   1938.86544282	     -5.68855282	    -15.90891598	   -298.96176147	   -265.72511095	   -810.44602657	      0.00000000	      0.00000000	     -0.00000000	  -2544.27225404	      0.00000000	     -0.00000000	      0.00000000	      0.00000000	      0.00000000	      0.00000000	      0.00000000	      0.00000000	      0.00000000
      0.18000000	      0.00000000	     -0.00000000	      0.00000000	      0.00000000	      0.00000000	      0.00000000	      0.00000000	      0.00000000	      0.00000000	      5.35263062	     15.59782028	   -325.07052612	   -323.84203323	  -1015.87534340	      0.00000000	     -0.00000000	      0.00000000	   2004.99906451	     -5.79900359	    -16.18464038	   -297.17108154	   -265.19796769	   -812.22132877	      0.00000000	      0.00000000	     -0.00000000	  -2532.00497117	      0.00000000	     -0.00000000	      0.00000000	      0.00000000	      0.00000000	      0.00000000	      0.00000000	      0.00000000	      0.00000000
